<?xml version="1.0" encoding="UTF-8"?>
<svg version="1.1" xmlns="http://www.w3.org/2000/svg" width="40" height="40">
<path d="M0 0 C13.2 0 26.4 0 40 0 C40 13.2 40 26.4 40 40 C26.8 40 13.6 40 0 40 C0 26.8 0 13.6 0 0 Z " fill="#0A1B30" transform="translate(0,0)"/>
<path d="M0 0 C1.32 0 2.64 0 4 0 C4 2.31 4 4.62 4 7 C5.98 7 7.96 7 10 7 C10 4.69 10 2.38 10 0 C11.32 0 12.64 0 14 0 C14 5.94 14 11.88 14 18 C12.68 18 11.36 18 10 18 C10 15.69 10 13.38 10 11 C8.02 11 6.04 11 4 11 C4 13.31 4 15.62 4 18 C2.68 18 1.36 18 0 18 C0 12.06 0 6.12 0 0 Z " fill="#5EF1D0" transform="translate(20,10)"/>
<path d="M0 0 C9 0 9 0 12 2 C12.3125 5.5 12.3125 5.5 12 9 C10 11 10 11 6.875 11.125 C5.92625 11.08375 4.9775 11.0425 4 11 C4 13.31 4 15.62 4 18 C2.68 18 1.36 18 0 18 C0 12.06 0 6.12 0 0 Z " fill="#57DFC2" transform="translate(6,10)"/>
</svg>
